<?xml version="1.0" encoding="utf-8"?>
<!-- Generator: Adobe Illustrator 19.2.1, SVG Export Plug-In . SVG Version: 6.00 Build 0)  -->
<svg version="1.1" id="layer" xmlns="http://www.w3.org/2000/svg" xmlns:xlink="http://www.w3.org/1999/xlink" x="0px" y="0px"
	 viewBox="0 0 652 652" style="enable-background:new 0 0 652 652;" xml:space="preserve">
<style type="text/css">
	.st0{fill:#004750;}
	.st1{fill:#B3B2B1;}
</style>
<g>
	<path class="st0" d="M29.4,565.4v-1.1c-1.5,1.7-2.9,3.1-4.4,4.1c-1.4,1.1-3,1.9-4.7,2.4c-1.7,0.5-3.5,0.8-5.5,0.8
		c-2.6,0-5.1-0.6-7.3-1.7c-2.2-1.1-4.2-2.7-5.8-4.8c-1.6-2.1-2.9-4.5-3.7-7.3c-0.8-2.8-1.3-5.8-1.3-9.1c0-6.9,1.7-12.2,5-16.1
		c3.4-3.8,7.8-5.8,13.3-5.8c3.2,0,5.8,0.6,8,1.7c2.2,1.1,4.3,2.8,6.4,5v-16.3c0-2.3,0.4-4,1.4-5.1c0.9-1.2,2.2-1.7,3.9-1.7
		c1.7,0,3,0.5,3.9,1.6c0.9,1.1,1.4,2.6,1.4,4.7v48.6c0,2.1-0.5,3.7-1.5,4.7c-1,1.1-2.2,1.6-3.8,1.6c-1.5,0-2.8-0.5-3.7-1.6
		C29.9,569,29.4,567.4,29.4,565.4 M7.7,549.3c0,3,0.5,5.5,1.4,7.6c0.9,2.1,2.2,3.7,3.8,4.7c1.6,1.1,3.4,1.6,5.3,1.6
		c1.9,0,3.7-0.5,5.3-1.5c1.6-1,2.9-2.6,3.8-4.6c1-2.1,1.4-4.7,1.4-7.8c0-2.9-0.5-5.5-1.4-7.6c-1-2.1-2.2-3.7-3.9-4.8
		c-1.6-1.1-3.4-1.7-5.4-1.7c-2,0-3.8,0.6-5.4,1.7c-1.6,1.1-2.8,2.8-3.7,4.9C8.2,544,7.7,546.4,7.7,549.3"/>
	<path class="st0" d="M79.4,565.4V564c-1.3,1.7-2.7,3-4.1,4.2c-1.5,1.1-3,2-4.8,2.5c-1.7,0.6-3.7,0.8-5.9,0.8c-2.7,0-5-0.6-7.2-1.6
		c-2.1-1.1-3.7-2.6-4.9-4.6c-1.4-2.3-2-5.7-2-10.1v-21.8c0-2.2,0.5-3.9,1.5-4.9c1-1.1,2.3-1.6,3.9-1.6c1.7,0,3,0.6,4,1.7
		c1,1.1,1.5,2.7,1.5,4.9v17.6c0,2.6,0.2,4.7,0.7,6.4c0.4,1.7,1.2,3.1,2.3,4.1c1.1,1,2.6,1.5,4.5,1.5c1.9,0,3.6-0.5,5.3-1.6
		c1.6-1.1,2.8-2.6,3.6-4.3c0.6-1.6,0.9-5,0.9-10.2v-13.4c0-2.2,0.5-3.8,1.5-4.9c1-1.1,2.3-1.7,4-1.7c1.6,0,3,0.6,4,1.6
		c1,1.1,1.5,2.7,1.5,4.9v31.8c0,2.1-0.5,3.7-1.4,4.7c-1,1.1-2.2,1.6-3.7,1.6c-1.5,0-2.7-0.5-3.7-1.6
		C79.9,568.9,79.4,567.4,79.4,565.4"/>
	<path class="st0" d="M110.9,516.8v16.9c2.1-2.2,4.2-3.8,6.3-5c2.1-1.2,4.8-1.7,8-1.7c3.7,0,6.9,0.9,9.6,2.6
		c2.7,1.7,4.9,4.3,6.4,7.5c1.5,3.3,2.3,7.2,2.3,11.7c0,3.3-0.4,6.4-1.3,9.2c-0.8,2.8-2.1,5.2-3.7,7.2c-1.6,2.1-3.6,3.6-5.9,4.7
		c-2.3,1.1-4.8,1.7-7.6,1.7c-1.7,0-3.3-0.2-4.8-0.6c-1.5-0.4-2.8-0.9-3.8-1.6c-1.1-0.7-1.9-1.3-2.7-2.1c-0.7-0.7-1.7-1.7-2.9-3.1
		v1.1c0,2.1-0.5,3.6-1.5,4.7c-1,1.1-2.3,1.6-3.8,1.6c-1.6,0-2.8-0.5-3.7-1.6c-0.9-1.1-1.4-2.6-1.4-4.7v-48.1c0-2.2,0.5-3.9,1.4-5.1
		c0.9-1.1,2.2-1.7,3.8-1.7c1.7,0,3,0.6,3.9,1.6C110.4,513.3,110.9,514.8,110.9,516.8 M111.4,549.6c0,4.4,1,7.7,3,10.1
		c2,2.3,4.6,3.5,7.9,3.5c2.8,0,5.1-1.2,7.1-3.6c2-2.4,3-5.9,3-10.3c0-2.9-0.4-5.4-1.3-7.5c-0.8-2.1-2-3.7-3.5-4.9
		c-1.5-1.1-3.3-1.7-5.3-1.7c-2.1,0-4,0.6-5.6,1.7c-1.6,1.1-2.9,2.8-3.9,5C111.9,544,111.4,546.6,111.4,549.6"/>
	<path class="st0" d="M151.2,565v-47.8c0-2.2,0.5-3.9,1.5-5c1-1.1,2.3-1.7,3.9-1.7c1.7,0,3,0.6,4,1.7c1,1.1,1.5,2.8,1.5,5V565
		c0,2.2-0.5,3.9-1.5,5c-1,1.1-2.4,1.7-4,1.7c-1.6,0-2.9-0.6-3.9-1.7C151.7,568.8,151.2,567.1,151.2,565"/>
	<path class="st0" d="M179.1,521.8c-1.5,0-2.8-0.5-3.9-1.4c-1.1-0.9-1.6-2.3-1.6-4c0-1.6,0.6-2.8,1.7-3.8c1.1-1,2.4-1.5,3.9-1.5
		c1.4,0,2.7,0.5,3.8,1.4c1.1,0.9,1.6,2.2,1.6,4c0,1.7-0.5,3-1.6,3.9C181.9,521.3,180.6,521.8,179.1,521.8 M184.5,533.2V565
		c0,2.2-0.5,3.9-1.6,5c-1,1.1-2.4,1.7-4,1.7c-1.6,0-2.9-0.6-3.9-1.7c-1-1.2-1.5-2.8-1.5-5v-31.5c0-2.2,0.5-3.8,1.5-4.9
		c1-1.1,2.3-1.7,3.9-1.7c1.6,0,2.9,0.6,4,1.7C184,529.7,184.5,531.2,184.5,533.2"/>
	<path class="st0" d="M205.9,533v1.3c1.9-2.5,4-4.4,6.3-5.6c2.3-1.2,4.9-1.8,7.9-1.8c2.9,0,5.5,0.6,7.8,1.9c2.3,1.3,4,3,5.1,5.3
		c0.7,1.3,1.2,2.8,1.4,4.4c0.2,1.6,0.3,3.5,0.3,6V565c0,2.2-0.5,3.9-1.5,5c-1,1.1-2.3,1.7-3.9,1.7c-1.6,0-3-0.6-4-1.7
		c-1-1.2-1.5-2.8-1.5-5v-18.4c0-3.6-0.5-6.4-1.5-8.3c-1-1.9-3-2.9-6-2.9c-2,0-3.8,0.6-5.4,1.8c-1.6,1.2-2.8,2.8-3.5,4.8
		c-0.5,1.6-0.8,4.7-0.8,9.2V565c0,2.2-0.5,3.9-1.5,5s-2.4,1.7-4,1.7c-1.6,0-2.9-0.6-3.9-1.7c-1-1.2-1.5-2.8-1.5-5v-31.8
		c0-2.1,0.5-3.7,1.4-4.7c0.9-1,2.1-1.6,3.7-1.6c1,0,1.8,0.2,2.6,0.7c0.8,0.5,1.4,1.1,1.9,2.1C205.6,530.6,205.9,531.7,205.9,533"/>
	<path class="st0" d="M255.9,516.8v16.9c2.1-2.2,4.2-3.8,6.3-5c2.1-1.2,4.8-1.7,8-1.7c3.7,0,6.9,0.9,9.6,2.6
		c2.7,1.7,4.9,4.3,6.4,7.5c1.5,3.3,2.3,7.2,2.3,11.7c0,3.3-0.4,6.4-1.3,9.2c-0.8,2.8-2.1,5.2-3.7,7.2c-1.6,2.1-3.6,3.6-5.9,4.7
		c-2.3,1.1-4.8,1.7-7.6,1.7c-1.7,0-3.3-0.2-4.8-0.6c-1.5-0.4-2.8-0.9-3.8-1.6c-1-0.7-1.9-1.3-2.7-2.1c-0.8-0.7-1.7-1.7-2.9-3.1v1.1
		c0,2.1-0.5,3.6-1.5,4.7c-1,1.1-2.3,1.6-3.8,1.6c-1.6,0-2.8-0.5-3.7-1.6c-0.9-1.1-1.4-2.6-1.4-4.7v-48.1c0-2.2,0.5-3.9,1.4-5.1
		c0.9-1.1,2.2-1.7,3.8-1.7c1.7,0,3,0.6,3.9,1.6C255.5,513.3,255.9,514.8,255.9,516.8 M256.5,549.6c0,4.4,1,7.7,3,10.1
		c2,2.3,4.6,3.5,7.9,3.5c2.8,0,5.1-1.2,7.1-3.6c2-2.4,3-5.9,3-10.3c0-2.9-0.4-5.4-1.2-7.5c-0.8-2.1-2-3.7-3.5-4.9
		c-1.5-1.1-3.3-1.7-5.4-1.7c-2.1,0-4,0.6-5.6,1.7c-1.6,1.1-2.9,2.8-3.9,5C256.9,544,256.5,546.6,256.5,549.6"/>
	<path class="st0" d="M302.9,521.8c-1.5,0-2.8-0.5-3.9-1.4c-1.1-0.9-1.6-2.3-1.6-4c0-1.6,0.6-2.8,1.7-3.8c1.1-1,2.4-1.5,3.9-1.5
		c1.4,0,2.7,0.5,3.8,1.4c1.1,0.9,1.6,2.2,1.6,4c0,1.7-0.5,3-1.6,3.9C305.7,521.3,304.4,521.8,302.9,521.8 M308.3,533.2V565
		c0,2.2-0.5,3.9-1.6,5c-1,1.1-2.4,1.7-4,1.7c-1.6,0-2.9-0.6-3.9-1.7c-1-1.2-1.5-2.8-1.5-5v-31.5c0-2.2,0.5-3.8,1.5-4.9
		c1-1.1,2.3-1.7,3.9-1.7c1.6,0,2.9,0.6,4,1.7C307.8,529.7,308.3,531.2,308.3,533.2"/>
	<path class="st0" d="M347.1,566.6l-9.7-16l-6,5.6v8.7c0,2.1-0.6,3.8-1.7,4.9c-1.1,1.1-2.4,1.7-3.8,1.7c-1.7,0-3-0.6-4-1.7
		c-1-1.1-1.4-2.8-1.4-5v-47c0-2.4,0.5-4.3,1.4-5.6c0.9-1.3,2.3-1.9,4-1.9c1.7,0,3,0.6,4,1.7c1,1.2,1.5,2.9,1.5,5.1V544l12.4-12.9
		c1.5-1.6,2.7-2.7,3.5-3.3c0.8-0.6,1.8-0.9,2.9-0.9c1.4,0,2.5,0.4,3.4,1.3c0.9,0.9,1.4,2,1.4,3.3c0,1.6-1.5,3.8-4.5,6.5l-5.8,5.4
		l11.3,17.8c0.8,1.3,1.4,2.3,1.8,3c0.4,0.7,0.5,1.3,0.5,2c0,1.7-0.5,3.1-1.4,4.1c-0.9,1-2.2,1.5-3.8,1.5c-1.4,0-2.4-0.4-3.1-1.1
		C349.3,569.9,348.4,568.6,347.1,566.6"/>
	<path class="st0" d="M394.6,552h-21.5c0,2.5,0.5,4.7,1.5,6.6c1,1.9,2.3,3.4,3.9,4.3c1.6,1,3.4,1.4,5.4,1.4c1.3,0,2.5-0.2,3.6-0.5
		c1.1-0.3,2.1-0.8,3.2-1.4c1-0.7,2-1.4,2.8-2.1c0.9-0.8,2-1.8,3.4-3.1c0.6-0.5,1.4-0.7,2.4-0.7c1.1,0,2,0.3,2.7,0.9s1,1.5,1,2.6
		c0,1-0.4,2.2-1.2,3.5c-0.8,1.3-2,2.6-3.5,3.8c-1.6,1.2-3.5,2.2-5.9,3c-2.4,0.8-5.1,1.2-8.2,1.2c-7.1,0-12.6-2-16.5-6
		c-3.9-4-5.9-9.5-5.9-16.4c0-3.3,0.5-6.3,1.5-9.1c1-2.8,2.4-5.2,4.2-7.2c1.9-2,4.1-3.5,6.9-4.6c2.7-1.1,5.7-1.6,9-1.6
		c4.3,0,8,0.9,11.1,2.7c3.1,1.8,5.4,4.2,6.9,7c1.5,2.9,2.3,5.8,2.3,8.8c0,2.8-0.8,4.6-2.4,5.4C399.7,551.6,397.5,552,394.6,552
		 M373.1,545.8h20c-0.3-3.7-1.3-6.6-3-8.4c-1.8-1.9-4.1-2.8-7-2.8c-2.7,0-5,0.9-6.7,2.8C374.5,539.3,373.5,542.1,373.1,545.8"/>
	<path class="st0" d="M448.3,557.3c0,3.1-0.7,5.7-2.2,7.8c-1.5,2.2-3.7,3.8-6.5,4.9c-2.9,1.1-6.4,1.7-10.5,1.7
		c-4,0-7.3-0.6-10.2-1.8c-2.8-1.2-4.9-2.7-6.3-4.5c-1.3-1.8-2-3.6-2-5.5c0-1.2,0.4-2.2,1.3-3.1c0.9-0.9,2-1.3,3.3-1.3
		c1.2,0,2,0.3,2.7,0.8c0.6,0.6,1.2,1.4,1.8,2.4c1.1,2,2.5,3.4,4,4.4c1.6,1,3.7,1.5,6.4,1.5c2.2,0,4-0.5,5.4-1.5
		c1.4-1,2.1-2.1,2.1-3.4c0-1.9-0.7-3.3-2.2-4.2c-1.5-0.9-3.9-1.7-7.2-2.5c-3.8-0.9-6.9-1.9-9.3-3c-2.4-1-4.3-2.4-5.7-4.1
		c-1.4-1.7-2.1-3.8-2.1-6.2c0-2.2,0.7-4.3,2-6.3c1.3-2,3.2-3.5,5.8-4.7c2.6-1.2,5.7-1.8,9.3-1.8c2.8,0,5.4,0.3,7.7,0.9
		c2.3,0.6,4.2,1.4,5.7,2.4c1.5,1,2.7,2.1,3.5,3.3c0.8,1.2,1.2,2.4,1.2,3.5c0,1.3-0.4,2.3-1.3,3.1c-0.8,0.8-2,1.2-3.6,1.2
		c-1.1,0-2.1-0.3-2.9-1c-0.8-0.6-1.7-1.6-2.7-2.9c-0.8-1.1-1.8-1.9-2.9-2.6c-1.1-0.6-2.6-1-4.6-1c-2,0-3.6,0.4-5,1.3
		c-1.3,0.8-2,1.9-2,3.2c0,1.2,0.5,2.1,1.5,2.8c1,0.7,2.3,1.4,3.9,1.8c1.6,0.5,3.9,1.1,6.8,1.8c3.4,0.8,6.2,1.8,8.4,3
		c2.2,1.2,3.8,2.5,4.9,4.1C447.8,553.5,448.3,555.3,448.3,557.3"/>
	<path class="st1" d="M517.4,108.2c0,20.2-16.2,36.5-36.2,36.5c-20,0-36.2-16.4-36.2-36.5c0-20.2,16.2-36.6,36.2-36.6
		C501.2,71.7,517.4,88.1,517.4,108.2"/>
	<path class="st1" d="M489.6,200.4h70.7c0,0,22.2,15.1,0,28.6h-80.2l-33.4-39.7l-50.9,40.5l59.6,45.3L453,396.6l-36.6-1.6l-3.2-93.8
		l-85.8-50.1c0,0-19.1-22.2,7.2-44.5l76.3-74.7c0,0,19.9-16.7,38.9,4C468.9,156.7,489.6,200.4,489.6,200.4"/>
	<polygon class="st1" points="554.1,355.7 572.6,351 541,223.4 520.7,222.9 	"/>
	<path class="st1" d="M649.5,368.2c0,52.3-41.5,94.7-92.7,94.7c-51.2,0-92.7-42.4-92.7-94.7c0-52.3,41.5-94.7,92.7-94.7
		C608,273.5,649.5,315.9,649.5,368.2 M556.8,287.2c-43.4,0-78.6,36.1-78.6,80.7c0,44.6,35.2,80.8,78.6,80.8
		c43.4,0,78.7-36.2,78.7-80.8C635.4,323.3,600.2,287.2,556.8,287.2"/>
	<path class="st0" d="M455.5,438.7c0,3.3-0.8,6.1-2.4,8.4c-1.6,2.3-4,4.1-7.1,5.3c-3.1,1.2-6.9,1.8-11.4,1.8
		c-4.3,0-7.9-0.6-10.9-1.9c-3.1-1.3-5.3-2.9-6.7-4.9c-1.5-2-2.2-3.9-2.2-5.9c0-1.3,0.5-2.4,1.4-3.4c0.9-0.9,2.1-1.4,3.5-1.4
		c1.3,0,2.2,0.3,2.9,0.9c0.7,0.6,1.3,1.5,1.9,2.6c1.2,2.1,2.7,3.7,4.4,4.7c1.7,1.1,4,1.6,6.9,1.6c2.4,0,4.3-0.5,5.8-1.6
		c1.5-1.1,2.3-2.3,2.3-3.6c0-2.1-0.8-3.6-2.4-4.6c-1.6-1-4.2-1.9-7.8-2.7c-4.1-1-7.4-2.1-10-3.2c-2.6-1.1-4.6-2.6-6.2-4.4
		c-1.5-1.8-2.3-4.1-2.3-6.7c0-2.4,0.7-4.6,2.1-6.7c1.4-2.1,3.5-3.8,6.3-5.1c2.8-1.3,6.1-1.9,10-1.9c3.1,0,5.8,0.3,8.3,0.9
		c2.4,0.6,4.5,1.5,6.1,2.6c1.6,1.1,2.9,2.3,3.7,3.6c0.9,1.3,1.3,2.6,1.3,3.8c0,1.4-0.5,2.5-1.4,3.4c-0.9,0.9-2.2,1.3-3.9,1.3
		c-1.2,0-2.2-0.4-3.1-1c-0.9-0.7-1.8-1.7-2.9-3.1c-0.9-1.2-1.9-2.1-3.2-2.8c-1.2-0.7-2.8-1-4.9-1c-2.1,0-3.9,0.5-5.3,1.4
		c-1.4,0.9-2.1,2.1-2.1,3.4c0,1.3,0.5,2.3,1.6,3.1c1,0.8,2.4,1.5,4.2,2c1.8,0.5,4.2,1.2,7.3,1.9c3.7,0.9,6.7,2,9,3.2
		c2.3,1.3,4.1,2.7,5.3,4.4C454.9,434.6,455.5,436.5,455.5,438.7"/>
	<rect x="207.3" y="208.6" class="st0" width="34" height="258.6"/>
	<path class="st0" d="M412.9,369c0,57-45.8,103.3-102.2,103.3c-56.4,0-102.2-46.2-102.2-103.3c0-57,45.8-103.3,102.2-103.3
		C367.1,265.8,412.9,312,412.9,369 M309.5,297.1c-37.7,0-68.3,31.9-68.3,71.3c0,39.4,30.6,71.3,68.3,71.3
		c37.7,0,68.3-31.9,68.3-71.3C377.8,329,347.2,297.1,309.5,297.1"/>
	<rect x="163.8" y="208.6" class="st0" width="34" height="258.6"/>
	<path class="st0" d="M94.4,265.8c56.4,0,102.2,46.2,102.2,103.3S150.8,472.3,94.4,472.3C37.9,472.3-7.8,426.1-7.8,369
		S37.9,265.8,94.4,265.8 M27.3,368.4c0,39.4,30.6,71.3,68.3,71.3c37.7,0,68.3-31.9,68.3-71.3c0-39.3-30.6-71.3-68.3-71.3
		C57.8,297.1,27.3,329,27.3,368.4"/>
</g>
</svg>
